
      <svg
        width="450"
        height="445"
        viewBox="0 0 450 445"
        fill="none"
        xmlns="http://www.w3.org/2000/svg"
        role="img"
        aria-labelledby="descId"
      >
        <title id="titleId">Evan Kaufman&#39;s GitHub Stats, Rank: A-</title>
        <desc id="descId">Total Stars Earned: 62, Total Contributions: 1733, Total Commits  : 4667, Total PRs: 230, Total PRs Merged: 195, Merged PRs Percentage: 84.78, Total PRs Reviewed: 0, Total Issues: 65, Total Discussions Started: 2, Total Discussions Answered: 0, PRs Commented: 38, PRs Reviewed: 3, Issues Commented: 174, Contributed to (last year): 3, Contributed to (all time): 58</desc>
        <style>
          .header {
            font: 600 18px 'Segoe UI', Ubuntu, Sans-Serif;
            fill: #006AFF;
            animation: fadeInAnimation 0.8s ease-in-out forwards;
          }
          @supports(-moz-appearance: auto) {
            /* Selector detects Firefox */
            .header { font-size: 15.5px; }
          }
          
    .stat {
      font: 600 14px 'Segoe UI', Ubuntu, "Helvetica Neue", Sans-Serif; fill: #417E87;
    }
    @supports(-moz-appearance: auto) {
      /* Selector detects Firefox */
      .stat { font-size:12px; }
    }
    .stagger {
      opacity: 0;
      animation: fadeInAnimation 0.3s ease-in-out forwards;
    }
    .rank-text {
      font: 800 24px 'Segoe UI', Ubuntu, Sans-Serif; fill: #417E87;
      animation: scaleInAnimation 0.3s ease-in-out forwards;
    }
    .rank-percentile-header {
      font-size: 14px;
    }
    .rank-percentile-text {
      font-size: 16px;
    }
    
    .not_bold { font-weight: 400 }
    .bold { font-weight: 700 }
    .icon {
      fill: #0579C3;
      display: none;
    }

    .rank-circle-rim {
      stroke: #006AFF;
      fill: none;
      stroke-width: 6;
      opacity: 0.2;
    }
    .rank-circle {
      stroke: #006AFF;
      stroke-dasharray: 250;
      fill: none;
      stroke-width: 6;
      stroke-linecap: round;
      opacity: 0.8;
      transform-origin: -10px 8px;
      transform: rotate(-90deg);
      animation: rankAnimation 1s forwards ease-in-out;
    }
    
    @keyframes rankAnimation {
      from {
        stroke-dashoffset: 251.32741228718345;
      }
      to {
        stroke-dashoffset: 71.02468171702247;
      }
    }
  
  
          

          
      /* Animations */
      @keyframes scaleInAnimation {
        from {
          transform: translate(-5px, 5px) scale(0);
        }
        to {
          transform: translate(-5px, 5px) scale(1);
        }
      }
      @keyframes fadeInAnimation {
        from {
          opacity: 0;
        }
        to {
          opacity: 1;
        }
      }
    
          
        </style>

        
        <defs>
          
          
        </defs>
        

        <rect
          data-testid="card-bg"
          class="card-bg"
          x="0.5"
          y="0.5"
          rx="4.5"
          height="99%"
          stroke="#e4e2e2"
          width="449"
          fill="#ffffff00"
          stroke-opacity="1"
        />

        
      <g
        data-testid="card-title"
        transform="translate(25, 35)"
      >
        <g transform="translate(0, 0)">
      <text
        x="0"
        y="0"
        class="header"
        data-testid="header"
      >Evan Kaufman&#39;s GitHub Stats</text>
    </g>
      </g>
    

        <g
          data-testid="main-card-body"
          transform="translate(0, 55)"
        >
          
    <g data-testid="rank-circle"
          transform="translate(365, 172.5)">
        <circle class="rank-circle-rim" cx="-10" cy="8" r="40" />
        <circle class="rank-circle" cx="-10" cy="8" r="40" />
        <g class="rank-text">
          
        <svg x="-38" y="-30" height="66" width="66" aria-hidden="true" viewBox="0 0 16 16" version="1.1" data-view-component="true" data-testid="github-rank-icon">
          <path d="M8 0c4.42 0 8 3.58 8 8a8.013 8.013 0 0 1-5.45 7.59c-.4.08-.55-.17-.55-.38 0-.27.01-1.13.01-2.2 0-.75-.25-1.23-.54-1.48 1.78-.2 3.65-.88 3.65-3.95 0-.88-.31-1.59-.82-2.15.08-.2.36-1.02-.08-2.12 0 0-.67-.22-2.2.82-.64-.18-1.32-.27-2-.27-.68 0-1.36.09-2 .27-1.53-1.03-2.2-.82-2.2-.82-.44 1.1-.16 1.92-.08 2.12-.51.56-.82 1.28-.82 2.15 0 3.06 1.86 3.75 3.64 3.95-.23.2-.44.55-.51 1.07-.46.21-1.61.55-2.33-.66-.15-.24-.6-.83-1.23-.82-.67.01-.27.38.01.53.34.19.73.9.82 1.13.16.45.68 1.31 2.69.94 0 .67.01 1.3.01 1.49 0 .21-.15.45-.55.38A7.995 7.995 0 0 1 0 8c0-4.42 3.58-8 8-8Z"></path>
        </svg>
      
        </g>
      </g>
    <svg x="0" y="0">
      <g transform="translate(0, 0)">
    <g class="stagger" style="animation-delay: 450ms" transform="translate(25, 0)">
      
      <text class="stat  bold"  y="12.5">Total Stars Earned:</text>
      <text
        class="stat  bold"
        x="204.01"
        y="12.5"
        data-testid="stars"
      >62</text>
    </g>
  </g><g transform="translate(0, 25)">
    <g class="stagger" style="animation-delay: 600ms" transform="translate(25, 0)">
      
      <text class="stat  bold"  y="12.5">Total Contributions:</text>
      <text
        class="stat  bold"
        x="204.01"
        y="12.5"
        data-testid="contributions"
      >1.7k</text>
    </g>
  </g><g transform="translate(0, 50)">
    <g class="stagger" style="animation-delay: 750ms" transform="translate(25, 0)">
      
      <text class="stat  bold"  y="12.5">Total Commits:</text>
      <text
        class="stat  bold"
        x="204.01"
        y="12.5"
        data-testid="commits"
      >4.7k</text>
    </g>
  </g><g transform="translate(0, 75)">
    <g class="stagger" style="animation-delay: 900ms" transform="translate(25, 0)">
      
      <text class="stat  bold"  y="12.5">Total PRs:</text>
      <text
        class="stat  bold"
        x="204.01"
        y="12.5"
        data-testid="prs"
      >230</text>
    </g>
  </g><g transform="translate(0, 100)">
    <g class="stagger" style="animation-delay: 1050ms" transform="translate(25, 0)">
      
      <text class="stat  bold"  y="12.5">Total PRs Merged:</text>
      <text
        class="stat  bold"
        x="204.01"
        y="12.5"
        data-testid="prs_merged"
      >195</text>
    </g>
  </g><g transform="translate(0, 125)">
    <g class="stagger" style="animation-delay: 1200ms" transform="translate(25, 0)">
      
      <text class="stat  bold"  y="12.5">Merged PRs Percentage:</text>
      <text
        class="stat  bold"
        x="204.01"
        y="12.5"
        data-testid="prs_merged_percentage"
      >84.78 %</text>
    </g>
  </g><g transform="translate(0, 150)">
    <g class="stagger" style="animation-delay: 1350ms" transform="translate(25, 0)">
      
      <text class="stat  bold"  y="12.5">Total PRs Reviewed:</text>
      <text
        class="stat  bold"
        x="204.01"
        y="12.5"
        data-testid="reviews"
      >0</text>
    </g>
  </g><g transform="translate(0, 175)">
    <g class="stagger" style="animation-delay: 1500ms" transform="translate(25, 0)">
      
      <text class="stat  bold"  y="12.5">Total Issues:</text>
      <text
        class="stat  bold"
        x="204.01"
        y="12.5"
        data-testid="issues"
      >65</text>
    </g>
  </g><g transform="translate(0, 200)">
    <g class="stagger" style="animation-delay: 1650ms" transform="translate(25, 0)">
      
      <text class="stat  bold"  y="12.5">Total Discussions Started:</text>
      <text
        class="stat  bold"
        x="204.01"
        y="12.5"
        data-testid="discussions_started"
      >2</text>
    </g>
  </g><g transform="translate(0, 225)">
    <g class="stagger" style="animation-delay: 1800ms" transform="translate(25, 0)">
      
      <text class="stat  bold"  y="12.5">Total Discussions Answered:</text>
      <text
        class="stat  bold"
        x="204.01"
        y="12.5"
        data-testid="discussions_answered"
      >0</text>
    </g>
  </g><g transform="translate(0, 250)">
    <g class="stagger" style="animation-delay: 1950ms" transform="translate(25, 0)"><a href="https://github.com/search?q=commenter%3AEvanK+-author%3AEvanK&amp;type=pullrequests">
      
      <text class="stat  bold"  y="12.5">PRs Commented:</text>
      <text
        class="stat  bold"
        x="204.01"
        y="12.5"
        data-testid="prs_commented"
      >38</text></a>
    </g>
  </g><g transform="translate(0, 275)">
    <g class="stagger" style="animation-delay: 2100ms" transform="translate(25, 0)"><a href="https://github.com/search?q=reviewed-by%3AEvanK+-author%3AEvanK&amp;type=pullrequests">
      
      <text class="stat  bold"  y="12.5">PRs Reviewed:</text>
      <text
        class="stat  bold"
        x="204.01"
        y="12.5"
        data-testid="prs_reviewed"
      >3</text></a>
    </g>
  </g><g transform="translate(0, 300)">
    <g class="stagger" style="animation-delay: 2250ms" transform="translate(25, 0)"><a href="https://github.com/search?q=commenter%3AEvanK+-author%3AEvanK&amp;type=issues">
      
      <text class="stat  bold"  y="12.5">Issues Commented:</text>
      <text
        class="stat  bold"
        x="204.01"
        y="12.5"
        data-testid="issues_commented"
      >174</text></a>
    </g>
  </g><g transform="translate(0, 325)">
    <g class="stagger" style="animation-delay: 2400ms" transform="translate(25, 0)">
      
      <text class="stat  bold"  y="12.5">Contributed to (last year):</text>
      <text
        class="stat  bold"
        x="204.01"
        y="12.5"
        data-testid="contribs"
      >3</text>
    </g>
  </g><g transform="translate(0, 350)">
    <g class="stagger" style="animation-delay: 2550ms" transform="translate(25, 0)">
      
      <text class="stat  bold"  y="12.5">Contributed to (all time):</text>
      <text
        class="stat  bold"
        x="204.01"
        y="12.5"
        data-testid="all_time_contribs"
      >58</text>
    </g>
  </g>
    </svg>
  
        </g>
      </svg>
    